<?xml version="1.0" standalone="no"?>
<!DOCTYPE svg PUBLIC "-//W3C//DTD SVG 20010904//EN"
 "http://www.w3.org/TR/2001/REC-SVG-20010904/DTD/svg10.dtd">
<svg version="1.0" xmlns="http://www.w3.org/2000/svg"
 width="512.000000pt" height="512.000000pt" viewBox="0 0 512.000000 512.000000"
 preserveAspectRatio="xMidYMid meet">
<metadata>
Created by potrace 1.14, written by Peter Selinger 2001-2017
</metadata>
<g transform="translate(0.000000,512.000000) scale(0.100000,-0.100000)"
fill="#000000" stroke="none">
<path d="M2375 5114 c-255 -26 -501 -79 -690 -148 -152 -56 -407 -185 -535
-271 -291 -195 -545 -449 -733 -735 -80 -123 -210 -382 -263 -525 -51 -139
-100 -335 -126 -500 -31 -199 -31 -548 0 -750 43 -277 114 -500 241 -760 129
-263 280 -472 493 -682 210 -209 400 -344 663 -473 261 -129 478 -198 760
-242 199 -31 548 -31 750 0 277 43 500 114 760 241 263 129 472 280 682 493
209 210 344 400 473 663 129 261 198 478 242 760 31 199 31 548 0 750 -43 277
-114 500 -241 760 -129 263 -280 472 -493 682 -210 209 -400 344 -663 473
-366 180 -684 258 -1085 265 -107 1 -213 1 -235 -1z m450 -1021 c20 -54 298
-780 617 -1613 320 -833 583 -1525 586 -1538 l4 -22 -283 2 -283 3 -133 365
c-73 201 -140 384 -149 408 l-16 42 -607 0 -608 0 -66 -182 c-36 -101 -102
-285 -147 -410 l-82 -228 -284 0 c-156 0 -284 4 -284 9 0 5 279 739 620 1631
341 892 620 1624 620 1626 0 2 103 4 229 4 l228 0 38 -97z"/>
<path d="M2345 2818 c-114 -315 -210 -579 -212 -585 -4 -10 85 -13 426 -13
237 0 431 2 431 5 0 15 -424 1165 -430 1165 -4 0 -100 -258 -215 -572z"/>
</g>
</svg>
